<?xml version="1.0" standalone="no"?>
<!DOCTYPE svg PUBLIC "-//W3C//DTD SVG 20010904//EN"
 "http://www.w3.org/TR/2001/REC-SVG-20010904/DTD/svg10.dtd">
<svg version="1.0" xmlns="http://www.w3.org/2000/svg"
 width="720.000000pt" height="720.000000pt" viewBox="0 0 720.000000 720.000000"
 preserveAspectRatio="xMidYMid meet">
<metadata>
Created by potrace 1.11, written by Peter Selinger 2001-2013
</metadata>
<g transform="translate(0.000000,720.000000) scale(0.100000,-0.100000)"
fill="#000000" stroke="none">
<path d="M2195 7187 c-11 -7 -52 -30 -90 -51 -39 -22 -71 -43 -73 -48 -2 -4
-8 -8 -14 -8 -5 0 -51 -24 -101 -54 -51 -29 -114 -66 -140 -81 -27 -15 -70
-40 -95 -56 -26 -16 -59 -34 -74 -40 -16 -6 -28 -15 -28 -20 0 -5 -5 -9 -11
-9 -5 0 -54 -25 -107 -56 -53 -31 -117 -68 -142 -82 -25 -14 -56 -32 -70 -41
-14 -9 -34 -21 -45 -27 -19 -11 -20 -25 -25 -414 l-5 -402 -40 -22 c-22 -11
-41 -24 -43 -28 -2 -5 -10 -8 -18 -8 -8 0 -14 -4 -14 -10 0 -5 -5 -10 -11 -10
-6 0 -38 -16 -72 -36 -34 -20 -82 -48 -107 -62 -25 -13 -50 -29 -57 -34 -7 -5
-27 -17 -45 -27 -37 -19 -74 -41 -198 -113 l-85 -49 0 -1799 c0 -989 2 -1800
5 -1802 3 -2 16 -9 30 -17 14 -8 94 -54 177 -103 84 -48 157 -88 162 -88 5 0
11 -4 13 -8 2 -5 41 -30 88 -56 47 -27 103 -59 125 -73 22 -13 52 -29 67 -36
l28 -11 2 -405 3 -405 195 -113 c107 -63 202 -117 210 -121 8 -4 49 -27 90
-51 314 -183 326 -190 438 -252 20 -12 51 -30 69 -40 l32 -20 40 26 c22 14 43
25 45 25 4 0 195 110 226 130 8 6 22 13 30 17 8 4 44 25 80 46 36 22 83 50
105 62 86 47 141 78 152 87 8 7 41 -7 105 -45 96 -56 158 -91 218 -123 19 -11
37 -21 40 -24 10 -10 222 -130 230 -130 5 0 10 -4 12 -9 2 -5 26 -20 54 -34
l51 -26 69 40 c38 23 87 51 109 64 44 24 179 102 333 192 53 31 115 67 138 79
l40 24 210 -121 c115 -66 227 -131 249 -144 22 -12 69 -39 105 -60 36 -21 80
-46 98 -56 l33 -19 202 117 c111 64 270 156 354 205 187 108 198 114 303 174
47 26 87 51 90 54 3 3 23 15 45 26 l40 22 5 402 5 402 180 105 c99 58 202 118
230 133 28 16 100 57 160 92 l110 64 3 1802 2 1802 -40 25 c-22 14 -41 25 -43
25 -2 0 -53 29 -113 65 -60 36 -113 65 -117 65 -4 0 -13 5 -20 11 -7 6 -88 54
-182 108 l-170 98 -5 401 -5 401 -48 31 c-26 16 -49 30 -51 30 -2 0 -48 26
-103 58 -54 32 -118 70 -143 84 -58 33 -397 229 -562 324 l-127 74 -38 -22
c-43 -25 -128 -73 -182 -104 -20 -11 -132 -76 -250 -144 -117 -68 -219 -123
-225 -123 -6 0 -113 58 -236 130 -124 72 -242 140 -262 152 -21 11 -55 31 -75
43 -21 12 -57 32 -79 45 l-41 23 -135 -79 c-74 -43 -157 -91 -184 -106 -107
-60 -209 -119 -214 -124 -3 -4 -18 -13 -35 -21 -16 -8 -51 -27 -76 -42 l-46
-28 -347 200 c-191 110 -349 200 -349 199 -1 -1 -11 -6 -22 -12z"/>
</g>
</svg>
